<?xml version="1.0" encoding="UTF-8"?>
<svg xmlns="http://www.w3.org/2000/svg" xmlns:xlink="http://www.w3.org/1999/xlink" width="18px" height="18px" viewBox="0 0 18 18" version="1.1">
<g id="surface1">
<path style="fill:none;stroke-width:2;stroke-linecap:round;stroke-linejoin:round;stroke:rgb(0%,0%,0%);stroke-opacity:1;stroke-miterlimit:4;" d="M 3 9 L 3 19.401042 C 3 19.958333 3 20.239583 3.109375 20.453125 C 3.203125 20.640625 3.359375 20.796875 3.546875 20.890625 C 3.760417 21 4.041667 21 4.598958 21 L 15 21 M 14 13 L 14 10 M 14 10 L 14 7 M 14 10 L 11 10 M 14 10 L 17 10 M 7 13.802083 L 7 6.197917 C 7 5.078125 7 4.520833 7.21875 4.09375 C 7.411458 3.713542 7.713542 3.411458 8.09375 3.21875 C 8.520833 3 9.078125 3 10.197917 3 L 17.802083 3 C 18.921875 3 19.479167 3 19.90625 3.21875 C 20.286458 3.411458 20.588542 3.713542 20.78125 4.09375 C 21 4.520833 21 5.078125 21 6.197917 L 21 13.802083 C 21 14.921875 21 15.479167 20.78125 15.90625 C 20.588542 16.286458 20.286458 16.588542 19.90625 16.78125 C 19.479167 17 18.921875 17 17.802083 17 L 10.197917 17 C 9.078125 17 8.520833 17 8.09375 16.78125 C 7.713542 16.588542 7.411458 16.286458 7.21875 15.90625 C 7 15.479167 7 14.921875 7 13.802083 Z M 7 13.802083 " transform="matrix(0.75,0,0,0.75,0,0)"/>
</g>
</svg>
