<?xml version="1.0" encoding="UTF-8"?>
<svg xmlns="http://www.w3.org/2000/svg" xmlns:xlink="http://www.w3.org/1999/xlink" width="18px" height="18px" viewBox="0 0 18 18" version="1.1">
<g id="surface1">
<path style="fill:none;stroke-width:2;stroke-linecap:round;stroke-linejoin:round;stroke:rgb(14.509805%,13.333334%,82.745099%);stroke-opacity:1;stroke-miterlimit:4;" d="M 10 11 L 10 17 " transform="matrix(0.75,0,0,0.75,0,0)"/>
<path style="fill:none;stroke-width:2;stroke-linecap:round;stroke-linejoin:round;stroke:rgb(14.509805%,13.333334%,82.745099%);stroke-opacity:1;stroke-miterlimit:4;" d="M 14 11 L 14 17 " transform="matrix(0.75,0,0,0.75,0,0)"/>
<path style="fill:none;stroke-width:2;stroke-linecap:round;stroke-linejoin:round;stroke:rgb(14.509805%,13.333334%,82.745099%);stroke-opacity:1;stroke-miterlimit:4;" d="M 4 7 L 20 7 " transform="matrix(0.75,0,0,0.75,0,0)"/>
<path style="fill:none;stroke-width:2;stroke-linecap:round;stroke-linejoin:round;stroke:rgb(14.509805%,13.333334%,82.745099%);stroke-opacity:1;stroke-miterlimit:4;" d="M 6 7 L 18 7 L 18 18 C 18 19.65625 16.65625 21 15 21 L 9 21 C 7.34375 21 6 19.65625 6 18 Z M 6 7 " transform="matrix(0.75,0,0,0.75,0,0)"/>
<path style="fill:none;stroke-width:2;stroke-linecap:round;stroke-linejoin:round;stroke:rgb(14.509805%,13.333334%,82.745099%);stroke-opacity:1;stroke-miterlimit:4;" d="M 9 5 C 9 3.895833 9.895833 3 11 3 L 13 3 C 14.104167 3 15 3.895833 15 5 L 15 7 L 9 7 Z M 9 5 " transform="matrix(0.75,0,0,0.75,0,0)"/>
</g>
</svg>
